<?xml version="1.0" encoding="utf-8"?>
<!-- Generator: Adobe Illustrator 16.0.0, SVG Export Plug-In . SVG Version: 6.00 Build 0)  -->
<!DOCTYPE svg PUBLIC "-//W3C//DTD SVG 1.1//EN" "http://www.w3.org/Graphics/SVG/1.1/DTD/svg11.dtd" [
	<!ENTITY ns_flows "http://ns.adobe.com/Flows/1.0/">
	<!ENTITY ns_extend "http://ns.adobe.com/Extensibility/1.0/">
	<!ENTITY ns_ai "http://ns.adobe.com/AdobeIllustrator/10.0/">
	<!ENTITY ns_graphs "http://ns.adobe.com/Graphs/1.0/">
]>
<svg version="1.1" id="Layer_1" xmlns:x="&ns_extend;" xmlns:i="&ns_ai;" xmlns:graph="&ns_graphs;"
	 xmlns="http://www.w3.org/2000/svg" xmlns:xlink="http://www.w3.org/1999/xlink" xmlns:a="http://ns.adobe.com/AdobeSVGViewerExtensions/3.0/"
	 x="0px" y="0px" width="864px" height="864px" viewBox="0 0 864 864" enable-background="new 0 0 864 864" xml:space="preserve">
<path d="M777.191,551.526c-3.648-10.876-10.331-24.938-6.432-33.238c7.321-15.587-3.189-19.498-10.271-26.907
	c-1.025-1.073-1.769-2.416-2.572-3.535c4.476-1.24,8.634-2.392,12.794-3.543c0.212-1.357,0.424-2.715,0.637-4.07
	c-12.22-5.916-24.438-11.83-37.454-18.129c0.508-1.203,1.797-4.261,3.869-9.174c-8.736,1.562-15.669,2.459-22.433,4.069
	c-21.649,5.155-26.871,1.739-31.937-21.39c4.37-1.332,8.785-2.677,18.025-5.494c-7.357-4.619-11.641-7.309-16.145-10.136
	c4.686-2.913,7.842-4.875,7.453-4.633c-14.022-16.591-30.743-30.724-40.186-48.682c-21.86-41.58-40.692-84.797-59.478-127.906
	c-3.089-7.094-1.811-17.806,1.091-25.467c8.234-21.74,18.354-42.767,27.918-64.498c-17.927,15.185-34.853,29.522-48.076,40.724
	c-18.6-14.18-33.113-25.245-48.28-36.808c0.148-0.406,1.344-3.675,2.982-8.163c-7.839,1.087-14.076,1.951-21.938,3.042
	c3.223-5.982,5.658-10.5,8.891-16.496c-5.506,0.81-9.489,1.397-14.644,2.157c4.394-5.631,7.707-9.877,11.022-14.123
	c-0.888-1.016-1.776-2.033-2.664-3.048c-10.305,6.767-20.61,13.536-35.176,23.102c6.95-10.22,11.165-16.418,15.377-22.613
	c-0.83-0.763-1.659-1.525-2.49-2.287c-9.005,7.973-18.011,15.947-27.442,24.296c-1.494-3.173-2.55-5.413-4.175-8.865
	c-6.099,8.854-11.145,16.179-18.679,27.116c1.578-7.889,2.308-11.531,3.034-15.17c-1.188-0.431-2.376-0.861-3.564-1.292
	c-4.375,9.834-8.749,19.668-13.164,29.589c-1.851-1.665-4.007-3.603-7.404-6.659c-3.421,12.853-6.433,24.164-9.319,35.005
	c-24.153,1.577-48.369,0.678-71.427,5.416c-20.013,4.112-32.062-3.062-43.279-16.921c-1.816-2.246-3.893-4.28-7.357-8.056
	c-1.719,7.106-2.894,11.958-4.448,18.391c-8.182-5.982-15.452-11.299-23.379-17.096c-1.283,4.381-2.378,8.118-4.345,14.834
	c-26.756-16.345-51.786-31.636-76.817-46.927c-0.638,0.869-1.278,1.738-1.917,2.607c30.733,39.168,61.465,78.337,91.394,116.479
	c-8.813,12.859-19.265,28.111-29.718,43.362c0.878,0.589,1.755,1.178,2.634,1.769c1.691-0.66,3.381-1.32,3.829-1.495
	c-3.129,16.665-6.497,34.37-9.751,52.098c-0.726,3.957-1.05,7.988-1.931,14.889c4.972-6.244,8.042-10.098,9.377-11.777
	c-2.212,16.855-4.663,35.544-7.115,54.233c1.076-0.083,2.151-0.166,3.228-0.249c11.051-22.389,22.104-44.78,33.156-67.169
	c1.55,0.604,3.1,1.208,4.648,1.811c0.597,3.497,1.194,6.991,1.981,11.618c18.509-21.721,33.159-29.767,44.798-27.838
	c-8.136,28.919-16.378,58.214-24.621,87.507c1.462,0.402,2.923,0.804,4.386,1.205c26.158-80.25,26.158-80.25,41.191-87.889
	c-16.238,43.801-21.476,80.034-14.47,100.096c4.417-58.635,10.835-81.302,28.757-99.306c4.97,7.832,9.802,15.449,14.636,23.065
	c2.815-6.123,1.295-11.342,3.205-14.463c2.329-3.801,8.136-8.803,11.41-8.147c19.605,3.931,32.922,15.969,35.632,36.2
	c3.104,23.184,4.353,46.614,6.377,69.593c6.712-38.482,1.49-76.537-11.908-114.241c33.619,26.123,39.542,62.661,40.72,101.265
	c6.532-33.673-5.987-64.184-13.234-96.804c11.166,11.841,22.33,23.682,35.5,37.647c-1.2-8.19-1.958-13.36-2.714-18.53
	c15.694,45.89,8.009,90.693-3.395,134.84c-11.262-6.878-20.919-12.776-33.393-20.396c0.951,8.164,1.362,11.694,1.696,14.55
	c-12.778,0-24.118,0-39.057,0c5.677,4.754,8.362,7.004,10.241,8.578c-7.507,4.378-14.777,8.618-25.034,14.599
	c8.938,3.359,13.676,5.141,19.128,7.19c-5.47,4.929-11.098,8.482-14.537,13.527c-3.44,5.051-7.042,16.525-6.56,16.754
	c11.06,5.269,2.12,11.939,1.614,17.655c-0.267,3.025-1.61,5.955-2.68,9.655c4.168,1.145,7.458,2.047,8.653,2.374
	c2.561,26.458,4.979,51.43,7.696,79.491c-47.253,0-93.262,1.192-139.161-0.518c-21.936-0.816-43.631-7.346-65.5-10.896
	c-18.068-2.931-28.011-13.542-29.685-31.325c-3.36-35.697,12.502-73.216,56.514-82.512c7.346-1.552,20.15,0.513,23.037,5.334
	c4.22,7.045,3.804,18.699,1.303,27.196c-1.335,4.543-10.927,7.602-17.324,9.182c-2.148,0.531-8.126-5.295-8.559-8.699
	c-1.206-9.488,4.869-13.469,14.005-13.494c1.34-0.005,2.679-1.289,4.495-2.227c-15.988-2.795-22.085-2.069-26.674,8.798
	c-3.402,8.064-4.935,20.021-1.211,26.99c2.877,5.383,15.166,7.645,23.333,7.79c9.479,0.169,19.373-2.492,28.481-5.669
	c32.839-11.45,46.855-52.455,26.166-78.214c7.887-0.968,15.157-1.86,22.426-2.752c0.042-1.252,0.081-2.505,0.123-3.758
	c-15.368-4.429-30.733-8.856-47.293-13.628c2.968-2.01,5.419-3.668,9.565-6.474c-23.789-9.661-44.847-7.388-66.754,3.826
	c2.284-4.662,3.729-7.609,5.172-10.557c-0.971-1.038-1.941-2.074-2.912-3.11c-8.666,6.472-17.33,12.94-26.753,19.977
	c-6.576-12.253-12.455-4.125-17.048,2.354c-4.588,6.471-7.544,14.099-9.229,17.368c-5.987,0-11.164-1.061-11.772,0.16
	c-7.966,15.969-15.285,32.262-22.768,48.473c1.356,0.741,2.712,1.481,4.068,2.223c-4.457,0.545-8.913,1.089-15.452,1.89
	c6.113,7.661,10.946,13.719,17.041,21.354c-12.304,1.395-24.751,0.154-27.447,16.383c5.663-0.349,9.988-0.615,12.509-0.77
	c-2.513,9.175-4.873,17.791-8.378,30.58c8.596-4.317,12.489-6.273,17.129-8.605c-3.928,21.927,4.288,38.443,21.656,51.062
	c13.572,9.859,25.661,21.762,38.409,32.756c177.095,0,354.188,0,531.282,0c2.02-3.71,3.506-7.862,6.155-11.047
	c9.078-10.901,19.485-20.811,27.659-32.323c10.062-14.171,19.598-29.007,26.952-44.685c3.547-7.564,1.578-17.713,2.237-28.9
	c3.974,6.437,6.824,11.051,10.56,17.1C792.546,584.033,782.805,568.258,777.191,551.526z M309.253,262.021
	c16.308,9.185,30.259,17.042,43.222,24.342C332.995,296.079,321.56,290.66,309.253,262.021z M381.826,325.903
	c-3.108-5.807-15.558-8.723-13.78-10.129c3.075-2.433,22.429-4.884,28.273,0C396.319,315.774,386.495,318.667,381.826,325.903z
	 M408.722,288.15c23.278-10.803,33.735-5.351,47.657-17.596C452.688,296.309,433.69,303.675,408.722,288.15z"/>
</svg>
